inDegrees=yes
name=ik_S57_A05_T02
DataType=double
version=3
OpenSimVersion=4.3-2021-08-27-4bc7ad9
endheader
time	pelvis_tilt	pelvis_list	pelvis_rotation	pelvis_tx	pelvis_ty	pelvis_tz	hip_flexion_r	hip_adduction_r	hip_rotation_r	knee_angle_r	knee_angle_r_beta	ankle_angle_r	subtalar_angle_r	mtp_angle_r	hip_flexion_l	hip_adduction_l	hip_rotation_l	knee_angle_l	knee_angle_l_beta	ankle_angle_l	subtalar_angle_l	mtp_angle_l	lumbar_extension	lumbar_bending	lumbar_rotation	arm_flex_r	arm_add_r	arm_rot_r	elbow_flex_r	pro_sup_r	wrist_flex_r	wrist_dev_r	arm_flex_l	arm_add_l	arm_rot_l	elbow_flex_l	pro_sup_l	wrist_flex_l	wrist_dev_l
21.61999999999963	-2.614950341032001	0.1608894687917083	8.077347262111648	0	0.9399999999999999	0	34.38802523197509	-9.825423214340402	-9.351517276262642	38.92358609207918	0.6793447339902545	0	0	0	34.38802523197509	-9.825423214340402	-9.351517276262642	38.92358609207918	0.6793447339902545	0	0	0	-3.966333619247955	-1.612664658183409	23.20676097450742	6.184187081942802	-11.56691700682011	-28.88868203724259	78.81125633044338	134.6072932758748	0	0	13.44216292432061	-12.86857786855671	9.684633079596521	56.11475280888482	179.9868603188255	0	0
21.63999999999963	-2.579337965917975	0.2355375527804149	7.869184149535231	0	0.9399999999999999	0	34.39001127992308	-9.82553193139532	-9.351778921390622	38.92574331254705	0.6793823845901101	0	0	0	34.39001127992308	-9.82553193139532	-9.351778921390622	38.92574331254705	0.6793823845901101	0	0	0	-3.917336062903868	-1.548098610844843	23.28338017647581	6.086208637591742	-11.63110354258614	-28.7517527531749	78.79298119148685	134.6209607004214	0	0	13.33279132241732	-12.78704838591472	9.535027971402265	56.05316284343427	179.9868667369904	0	0
21.65999999999963	-2.59353623750857	0.2922166493469962	7.91622149504343	0	0.9399999999999999	0	34.5257840835509	-9.832236692504939	-9.368785333770177	39.07758273372884	0.6820324824240548	0	0	0	34.5257840835509	-9.832236692504939	-9.368785333770177	39.07758273372884	0.6820324824240548	0	0	0	-3.880957450580413	-1.395136272130228	23.10814727350956	3.685860887642074	-10.14158976599991	-29.37178517618139	75.09801656760867	136.6321480544199	0	0	13.26053096793386	-12.64101703517024	9.407262178764569	55.92968856322882	179.9868754519549	0	0
21.67999999999963	-2.623495361847929	0.3319148393048166	7.788571120679039	0	0.9399999999999999	0	34.53115576820904	-9.832530496867543	-9.369495305707792	39.08329887314031	0.682132247877288	0	0	0	34.53115576820904	-9.832530496867543	-9.369495305707792	39.08329887314031	0.682132247877288	0	0	0	-3.903066551729312	-1.353324422357008	23.17361954325061	2.850616530924336	-9.743717208928901	-29.38183471886776	75.92696725072454	136.8952586822597	0	0	13.32664489107027	-12.55584382592991	9.370829936073703	55.88021305287345	179.9868876343249	0	0
21.69999999999963	-2.651487271736725	0.3645605058155156	7.67668405535656	0	0.9399999999999999	0	34.53667446846998	-9.832831982552122	-9.370224284646262	39.08917225062262	0.6822347576525668	0	0	0	34.53667446846998	-9.832831982552122	-9.370224284646262	39.08917225062262	0.6822347576525668	0	0	0	-3.924115713955412	-1.321068846894991	23.27364574374966	2.255115266575746	-9.462922642397945	-29.49740954263186	76.56144622231231	137.0888422937388	0	0	13.37682739772796	-12.48459740896254	9.391195521888124	55.8373738698698	179.9868812591571	0	0
21.71999999999963	-2.66010307847548	0.4016562346822563	7.36097197917265	0	0.9399999999999999	0	34.54434743542301	-9.833249419897021	-9.371235354980085	39.0973586454552	0.6823776371962635	0	0	0	34.54434743542301	-9.833249419897021	-9.371235354980085	39.0973586454552	0.6823776371962635	0	0	0	-3.92081155262808	-1.302610061448507	23.51905840827299	2.129927179708206	-8.482932641528784	-29.6588158428558	68.84390664653205	139.9202583722837	0	0	13.37217138022409	-12.42766495270702	9.367021405361156	55.80436263872877	179.9868618065637	0	0
21.73999999999963	-2.668687808401366	0.4272916276989075	7.367817241265916	0	0.9399999999999999	0	34.5484682478229	-9.833472302500553	-9.371776387837587	39.10177470340935	0.6824547119475225	0	0	0	34.5484682478229	-9.833472302500553	-9.371776387837587	39.10177470340935	0.6824547119475225	0	0	0	-3.926046740657311	-1.273257448533275	23.4691265476974	1.801260473818926	-8.170057190927022	-29.33863794855082	69.17038679040549	140.0529893563721	0	0	13.35229341218171	-12.37938122675156	9.303008805806998	55.80107036858859	179.9868630761095	0	0
21.75999999999962	-2.699864283627798	0.4449075117441232	7.466977339990295	0	0.9399999999999999	0	34.55711798393642	-9.833944272128386	-9.372918891750532	39.11095812223007	0.6826149928425335	0	0	0	34.55711798393642	-9.833944272128386	-9.372918891750532	39.11095812223007	0.6826149928425335	0	0	0	-3.954749702894495	-1.246642125194003	23.35664489030513	1.557410460717821	-7.675016139284921	-28.65344763918067	67.3147921615391	139.7813243901057	0	0	13.44828510610493	-12.31802216877379	9.347485369405339	55.72972478989542	179.9868599440923	0	0
21.77999999999962	-2.712935964755127	0.4583874672458993	7.542886792634149	0	0.9399999999999999	0	34.56080346881162	-9.834143232701136	-9.373402404502734	39.11490534024006	0.6826838847931018	0	0	0	34.56080346881162	-9.834143232701136	-9.373402404502734	39.11490534024006	0.6826838847931018	0	0	0	-3.96662349100724	-1.229236265602575	23.29906027745395	1.348503424035397	-7.251496799799083	-28.09706602804057	65.72503279485612	139.2952976734776	0	0	13.62002343443719	-12.28851927935151	9.499617000162635	55.57900705835851	179.9868320444385	0	0
21.79999999999962	-2.746786781433914	0.4695856533848209	7.462995151034481	0	0.9399999999999999	0	34.5665848993185	-9.834455468556003	-9.374161232680283	39.12108958041825	0.6827918201459454	0	0	0	34.5665848993185	-9.834455468556003	-9.374161232680283	39.12108958041825	0.6827918201459454	0	0	0	-3.996292802538047	-1.221494502295923	23.46370976079658	1.424695334867909	-6.972563808839929	-28.33268703899818	63.96916410504878	139.9321424336404	0	0	13.68494358727341	-12.21709512812024	9.571589169524948	55.55939536200704	179.986838205559	0	0
21.81999999999962	-2.76391015401086	0.456955861925458	7.463732376689419	0	0.9399999999999999	0	34.57344904394215	-9.834824822054644	-9.37506021657078	39.12844849375948	0.6829202574131188	0	0	0	34.57344904394215	-9.834824822054644	-9.37506021657078	39.12844849375948	0.6829202574131188	0	0	0	-4.013921945357367	-1.236765116073716	23.55796828911246	1.424904751191811	-6.749554142659368	-28.37926541662488	62.78499611225442	140.8508294397207	0	0	13.85204790507556	-12.23566418277425	9.764589132980475	55.43330602130509	179.9867932595602	0	0
